name ./resultDataOpenSim/trcMotMarkerGrf/sub06/grf-15-02.mot
datacolumns 19
datarows 22
range 0.54400000 0.62800000
endheader

                time	     ground_force_vx	     ground_force_vy	     ground_force_vz	     ground_force_px	     ground_force_py	     ground_force_pz	   l_ground_force_vx	   l_ground_force_vy	   l_ground_force_vz	   l_ground_force_px	   l_ground_force_py	   l_ground_force_pz	     ground_torque_x	     ground_torque_y	     ground_torque_z	   l_ground_torque_x	   l_ground_torque_y	   l_ground_torque_z	
          0.54400000	         77.06607291	        601.50584786	        -32.03804606	         -0.73942525	          0.00000000	          0.08885232	          0.00000000	          0.00000000	          0.00000000	          0.00000000	          0.00000000	          0.00000000	          0.00000000	          1.37489458	          0.00000000	          0.00000000	          0.00000000	          0.00000000	
          0.54800000	         83.32355287	        618.43845862	        -32.36863165	         -0.73836878	          0.00000000	          0.08897338	          0.00000000	          0.00000000	          0.00000000	          0.00000000	          0.00000000	          0.00000000	          0.00000000	          1.33623682	          0.00000000	          0.00000000	          0.00000000	          0.00000000	
          0.55200000	         90.00624391	        635.39620341	        -32.43696830	         -0.73747492	          0.00000000	          0.08901907	          0.00000000	          0.00000000	          0.00000000	          0.00000000	          0.00000000	          0.00000000	          0.00000000	          1.32073603	          0.00000000	          0.00000000	          0.00000000	          0.00000000	
          0.55600000	         96.77135020	        652.30385704	        -32.35984821	         -0.73672844	          0.00000000	          0.08897800	          0.00000000	          0.00000000	          0.00000000	          0.00000000	          0.00000000	          0.00000000	          0.00000000	          1.33222495	          0.00000000	          0.00000000	          0.00000000	          0.00000000	
          0.56000000	        103.37591241	        668.93643886	        -32.26453378	         -0.73610320	          0.00000000	          0.08886976	          0.00000000	          0.00000000	          0.00000000	          0.00000000	          0.00000000	          0.00000000	          0.00000000	          1.36875037	          0.00000000	          0.00000000	          0.00000000	          0.00000000	
          0.56400000	        109.70873069	        684.92680262	        -32.25710737	         -0.73551677	          0.00000000	          0.08874854	          0.00000000	          0.00000000	          0.00000000	          0.00000000	          0.00000000	          0.00000000	          0.00000000	          1.42267230	          0.00000000	          0.00000000	          0.00000000	          0.00000000	
          0.56800000	        115.76814734	        699.94607074	        -32.42307590	         -0.73487501	          0.00000000	          0.08866229	          0.00000000	          0.00000000	          0.00000000	          0.00000000	          0.00000000	          0.00000000	          0.00000000	          1.48248599	          0.00000000	          0.00000000	          0.00000000	          0.00000000	
          0.57200000	        121.65714447	        713.91043903	        -32.83035460	         -0.73416792	          0.00000000	          0.08861293	          0.00000000	          0.00000000	          0.00000000	          0.00000000	          0.00000000	          0.00000000	          0.00000000	          1.53576311	          0.00000000	          0.00000000	          0.00000000	          0.00000000	
          0.57600000	        127.57461127	        726.95939903	        -33.50673038	         -0.73349521	          0.00000000	          0.08856496	          0.00000000	          0.00000000	          0.00000000	          0.00000000	          0.00000000	          0.00000000	          0.00000000	          1.57220769	          0.00000000	          0.00000000	          0.00000000	          0.00000000	
          0.58000000	        133.73334879	        739.20149359	        -34.41748884	         -0.73296155	          0.00000000	          0.08848730	          0.00000000	          0.00000000	          0.00000000	          0.00000000	          0.00000000	          0.00000000	          0.00000000	          1.58595133	          0.00000000	          0.00000000	          0.00000000	          0.00000000	
          0.58400000	        140.25328508	        750.49777117	        -35.47367212	         -0.73256328	          0.00000000	          0.08838611	          0.00000000	          0.00000000	          0.00000000	          0.00000000	          0.00000000	          0.00000000	          0.00000000	          1.57661917	          0.00000000	          0.00000000	          0.00000000	          0.00000000	
          0.58800000	        147.13658803	        760.50447104	        -36.56698603	         -0.73218365	          0.00000000	          0.08829866	          0.00000000	          0.00000000	          0.00000000	          0.00000000	          0.00000000	          0.00000000	          0.00000000	          1.54904907	          0.00000000	          0.00000000	          0.00000000	          0.00000000	
          0.59200000	        154.31245644	        768.93218980	        -37.59734489	         -0.73172068	          0.00000000	          0.08825327	          0.00000000	          0.00000000	          0.00000000	          0.00000000	          0.00000000	          0.00000000	          0.00000000	          1.51177193	          0.00000000	          0.00000000	          0.00000000	          0.00000000	
          0.59600000	        161.67295893	        775.75242582	        -38.46844768	         -0.73118972	          0.00000000	          0.08823248	          0.00000000	          0.00000000	          0.00000000	          0.00000000	          0.00000000	          0.00000000	          0.00000000	          1.47455839	          0.00000000	          0.00000000	          0.00000000	          0.00000000	
          0.60000000	        169.08130566	        781.11467678	        -39.09382690	         -0.73068210	          0.00000000	          0.08818927	          0.00000000	          0.00000000	          0.00000000	          0.00000000	          0.00000000	          0.00000000	          0.00000000	          1.44558577	          0.00000000	          0.00000000	          0.00000000	          0.00000000	
          0.60400000	        176.37235959	        785.08126223	        -39.44121494	         -0.73024245	          0.00000000	          0.08810460	          0.00000000	          0.00000000	          0.00000000	          0.00000000	          0.00000000	          0.00000000	          0.00000000	          1.42903447	          0.00000000	          0.00000000	          0.00000000	          0.00000000	
          0.60800000	        183.36415514	        787.51314517	        -39.55454451	         -0.72979114	          0.00000000	          0.08800710	          0.00000000	          0.00000000	          0.00000000	          0.00000000	          0.00000000	          0.00000000	          0.00000000	          1.42390474	          0.00000000	          0.00000000	          0.00000000	          0.00000000	
          0.61200000	        189.89642370	        788.20482597	        -39.51932009	         -0.72923323	          0.00000000	          0.08792528	          0.00000000	          0.00000000	          0.00000000	          0.00000000	          0.00000000	          0.00000000	          0.00000000	          1.42436213	          0.00000000	          0.00000000	          0.00000000	          0.00000000	
          0.61600000	        195.88233637	        787.05429030	        -39.41529126	         -0.72854855	          0.00000000	          0.08786728	          0.00000000	          0.00000000	          0.00000000	          0.00000000	          0.00000000	          0.00000000	          0.00000000	          1.42129514	          0.00000000	          0.00000000	          0.00000000	          0.00000000	
          0.62000000	        201.32497700	        784.07732894	        -39.29783501	         -0.72779001	          0.00000000	          0.08782455	          0.00000000	          0.00000000	          0.00000000	          0.00000000	          0.00000000	          0.00000000	          0.00000000	          1.40445497	          0.00000000	          0.00000000	          0.00000000	          0.00000000	
          0.62400000	        206.27957689	        779.29443238	        -39.20066118	         -0.72701292	          0.00000000	          0.08778371	          0.00000000	          0.00000000	          0.00000000	          0.00000000	          0.00000000	          0.00000000	          0.00000000	          1.36459653	          0.00000000	          0.00000000	          0.00000000	          0.00000000	
          0.62800000	        210.80477694	        772.64812526	        -39.13190220	         -0.72623118	          0.00000000	          0.08774137	          0.00000000	          0.00000000	          0.00000000	          0.00000000	          0.00000000	          0.00000000	          0.00000000	          1.29523677	          0.00000000	          0.00000000	          0.00000000	          0.00000000	
